# xmcd
#
# Track frame offsets:
#	150
#	17317
#	34619
#	53101
#	71327
#	88184
#	104632
#	121856
#	137461
#	157333
#
# Disc length: 2330 seconds
#
# Revision: 1
# Processed by: cddbd v1.5.2PL0 Copyright (c) Steve Scherf et al.
# Submitted via: audiograbber 1.83.01
#
DISCID=7d09180a
DTITLE=PAGNY Florent - Les années 1980
DYEAR=2005
DGENRE=
TTITLE0=PAGNY Florent - N'importe quoi
TTITLE1=COCKER Joe and WARNES Jennifer - Up where we belong
TTITLE2=FIELDMAN François - Les valses de Vienne
TTITLE3=KAAS Patricia - Elle voulait jouer cabaret
TTITLE4=WOMACK and WOMACK - Teardrops
TTITLE5=MEDEIROS ELLI - Toi mon toit
TTITLE6=MONTAGNE Gilbert - Les sunlights des tropiques
TTITLE7=DEXY'S MIDNIGHT RUNNERS - Come On Eileen
TTITLE8=KOOL and THE GANG -  Fresh
TTITLE9=RAFT - Yaka Dansé
EXTD=
EXTT0=
EXTT1=
EXTT2=
EXTT3=
EXTT4=
EXTT5=
EXTT6=
EXTT7=
EXTT8=
EXTT9=
PLAYORDER=
